<svg xmlns="http://www.w3.org/2000/svg" enable-background="new 0 0 24 24" viewBox="0 0 24 24"><path d="M0.75,24c-0.192,0-0.382-0.074-0.526-0.216c-0.24-0.236-0.293-0.604-0.129-0.899c4.202-7.548,6.648-12.133,8.181-15.331C8.333,7.433,8.422,7.332,8.53,7.258c-0.011-0.129,0.01-0.261,0.068-0.384c0.861-1.839,1.403-3.186,2.09-4.89l0.614-1.517c0.114-0.28,0.386-0.464,0.688-0.467c0.33,0.021,0.577,0.177,0.696,0.456l0.585,1.379c1.649,3.898,2.557,6.046,7.947,16.075c0.127,0.236,0.116,0.517-0.016,0.739c0.015,0.012,0.029,0.024,0.043,0.036c0.193,0.157,0.376,0.307,0.558,0.447c0.083,0.064,0.151,0.145,0.201,0.237l1.904,3.522c0.16,0.295,0.105,0.661-0.136,0.895c-0.242,0.235-0.608,0.28-0.898,0.112c-3.731-2.154-6.294-3.264-8.571-3.709c-0.198-0.039-0.373-0.156-0.483-0.325c-0.111-0.169-0.148-0.376-0.105-0.573c0.074-0.334,0.117-0.699,0.127-1.084c0.049-2.021-0.889-3.513-1.76-3.586c-0.273-0.03-0.533,0.083-0.79,0.312c-0.618,0.553-1.02,1.657-1.051,2.881l-0.003,0.107c-0.004,0.452,0.046,0.904,0.149,1.344c0.046,0.199,0.009,0.409-0.102,0.58c-0.112,0.171-0.289,0.29-0.489,0.327c-2.308,0.436-4.901,1.55-8.672,3.726C1.008,23.967,0.878,24,0.75,24z M15.301,18.874c1.75,0.428,3.668,1.208,6.069,2.476l-0.61-1.13c-0.15-0.119-0.303-0.243-0.46-0.372c-0.781-0.636-1.666-1.356-3.18-2.133c-0.34-0.175-0.495-0.577-0.358-0.935c0.136-0.357,0.521-0.553,0.889-0.459c0.429,0.112,0.832,0.231,1.208,0.359c-4.394-8.235-5.41-10.58-6.845-13.971c-0.584,1.449-1.108,2.74-1.84,4.333c0.59,0.604,1.328,1.292,2.421,2.056c0.313,0.219,0.412,0.639,0.229,0.975c-0.183,0.335-0.588,0.479-0.944,0.333c-1.041-0.428-1.916-0.885-2.649-1.383c-1.384,2.817-3.417,6.634-6.554,12.303c2.417-1.271,4.35-2.05,6.119-2.473c-0.039-0.316-0.058-0.634-0.055-0.952c0-0.004,0-0.008,0-0.013l0.003-0.114c0.042-1.647,0.621-3.128,1.549-3.96c0.569-0.51,1.233-0.748,1.917-0.69c1.822,0.153,3.199,2.401,3.134,5.118C15.336,18.459,15.323,18.669,15.301,18.874z"/></svg>